<svg width="1595" height="1919" viewBox="0 0 1595 1919" fill="none" xmlns="http://www.w3.org/2000/svg">
<rect width="1595" height="1919" fill="#3D9ED5" fill-opacity="0.78"/>
<path fill-rule="evenodd" clip-rule="evenodd" d="M0 96.048L44 152.076C89 208.104 177 319.159 266 375.187C354 431.215 443 431.215 532 423.211C620 415.207 709 399.199 798 343.171C886 287.143 975 192.096 1063 136.068C1152 80.04 1241 64.032 1329 64.032C1418 64.032 1506 80.04 1551 88.044L1595 96.048V0H1551C1506 0 1418 0 1329 0C1241 0 1152 0 1063 0C975 0 886 0 798 0C709 0 620 0 532 0C443 0 354 0 266 0C177 0 89 0 44 0H0V96.048Z" fill="white"/>
</svg>
