<?xml version="1.0" standalone="no"?>
<svg xmlns:xlink="http://www.w3.org/1999/xlink" id="wave" style="transform:rotate(180deg); transition: 0.3s" viewBox="0 0 1440 490" version="1.1" xmlns="http://www.w3.org/2000/svg"><defs><linearGradient id="sw-gradient-0" x1="0" x2="0" y1="1" y2="0"><stop stop-color="rgba(32.189, 43.211, 75.454, 1)" offset="0%"/><stop stop-color="rgba(36.186, 61.456, 150.588, 1)" offset="100%"/></linearGradient></defs><path style="transform:translate(0, 0px); opacity:1" fill="url(#sw-gradient-0)" d="M0,98L80,114.3C160,131,320,163,480,204.2C640,245,800,294,960,277.7C1120,261,1280,180,1440,187.8C1600,196,1760,294,1920,285.8C2080,278,2240,163,2400,147C2560,131,2720,212,2880,245C3040,278,3200,261,3360,253.2C3520,245,3680,245,3840,204.2C4000,163,4160,82,4320,89.8C4480,98,4640,196,4800,269.5C4960,343,5120,392,5280,400.2C5440,408,5600,376,5760,302.2C5920,229,6080,114,6240,65.3C6400,16,6560,33,6720,89.8C6880,147,7040,245,7200,310.3C7360,376,7520,408,7680,392C7840,376,8000,310,8160,285.8C8320,261,8480,278,8640,294C8800,310,8960,327,9120,343C9280,359,9440,376,9600,334.8C9760,294,9920,196,10080,171.5C10240,147,10400,196,10560,236.8C10720,278,10880,310,11040,326.7C11200,343,11360,343,11440,343L11520,343L11520,490L11440,490C11360,490,11200,490,11040,490C10880,490,10720,490,10560,490C10400,490,10240,490,10080,490C9920,490,9760,490,9600,490C9440,490,9280,490,9120,490C8960,490,8800,490,8640,490C8480,490,8320,490,8160,490C8000,490,7840,490,7680,490C7520,490,7360,490,7200,490C7040,490,6880,490,6720,490C6560,490,6400,490,6240,490C6080,490,5920,490,5760,490C5600,490,5440,490,5280,490C5120,490,4960,490,4800,490C4640,490,4480,490,4320,490C4160,490,4000,490,3840,490C3680,490,3520,490,3360,490C3200,490,3040,490,2880,490C2720,490,2560,490,2400,490C2240,490,2080,490,1920,490C1760,490,1600,490,1440,490C1280,490,1120,490,960,490C800,490,640,490,480,490C320,490,160,490,80,490L0,490Z"/></svg>